<?xml version="1.0" encoding="UTF-8" standalone="no"?>
<svg xmlns:rdf="http://www.w3.org/1999/02/22-rdf-syntax-ns#" xmlns="http://www.w3.org/2000/svg" height="400" width="400" version="1.1" xmlns:cc="http://creativecommons.org/ns#" xmlns:dc="http://purl.org/dc/elements/1.1/" viewBox="0 0 400 400">
    <g fill="#ffffff">
        <path opacity="0.9" fill="#38c7a4" d="m201.86 30.025c-12.986-0.34497-25.812 2.9302-37.043 9.459l-86 50c-21.56 12.536-34.822 35.586-34.823 60.516v100c0.0014 24.932 13.263 47.983 34.816 60.516l86 50c21.752 12.645 48.616 12.645 70.367 0l86-50c21.55-12.54 34.81-35.59 34.81-60.52v-100c0-24.94-13.26-47.99-34.82-60.52l-86-50c-10.14-5.8948-21.599-9.1474-33.324-9.459z"/>
        <path opacity="0.9" d="m255.92 265.79c-20.21-0.0444-42.968 4.9033-67.975 16.693-33.178-14.8-68.71-6.0198-89.258 8.1133a5.0005 5.0005 0 1 0 5.666 8.2402c18.038-12.407 51.589-20.721 81.482-6.3809a5.0005 5.0005 0 0 0 4.3438 -0.008c49.412-23.955 87.386-19.423 114.98-4.2539a5.0005 5.0005 0 1 0 4.8184 -8.7637c-15.156-8.3326-33.268-13.595-54.055-13.641z"/>
        <path d="m199.96 93.5c-10.25 0.303-20.59 5.139-20.59 5.139-0.53 0.245-0.87 0.776-0.87 1.361v23.98l-22 8.81v-22.79c0-1.01-0.97-1.73-1.93-1.44-13.49 4.08-20.56 10.32-20.56 10.32-0.33 0.28-0.51 0.69-0.51 1.12v35c0 0.3 0.09 0.59 0.25 0.83l9.77 14.66 4.97 104.39c12.8-0.4 26.31 1.75 39.45 7.61 23.38-11.02 44.79-16.06 64-16.64l4.54-95.36 9.77-14.66c0.16-0.24 0.25-0.53 0.25-0.83v-35c0-0.44-0.19-0.85-0.52-1.14 0 0-6.53-5.56-20.5-10.28-0.97-0.33-1.98 0.39-1.98 1.42v22.79l-22-8.81v-23.98c0-0.575-0.33-1.099-0.85-1.35 0 0-10.37-5.113-20.64-5.15h-0.05zm-22.46 91.5a7.5 7.5 0 0 1 7.5 7.5 7.5 7.5 0 0 1 -7.5 7.5 7.5 7.5 0 0 1 -7.5 -7.5 7.5 7.5 0 0 1 7.5 -7.5zm45 0a7.5 7.5 0 0 1 7.5 7.5 7.5 7.5 0 0 1 -7.5 7.5 7.5 7.5 0 0 1 -7.5 -7.5 7.5 7.5 0 0 1 7.5 -7.5zm-31.73 24.31a2.761 2.761 0 0 1 2.28 1.2c1.84 2.62 4.37 3.97 6.95 3.97 2.59 0 5.12-1.35 6.96-3.97a2.761 2.761 0 0 1 2.27 -1.2 2.761 2.761 0 0 1 2.25 4.38c-2.73 3.89-6.95 6.31-11.48 6.31s-8.74-2.42-11.47-6.31a2.761 2.761 0 0 1 2.24 -4.38z"/>
        <path opacity="0.6" d="m125.9 137.24c-0.25 0.01-0.49 0.08-0.71 0.21l-10.78 6.42-0.33-2.43c-0.16-1.12-1.43-1.67-2.35-1.03l-10.31 7.25c-0.51 0.36-0.74 0.99-0.59 1.59l7.4 29.63v0.01c0.04 0.13 0.09 0.25 0.16 0.37l-19.464 31.8c-0.474 0.78-0.159 1.79 0.67 2.16l6.605 2.94 15.549 67.16c12.78-5.74 28.5-9.28 44.98-8.35l-1.7-60.89c-0.02-0.89-0.82-1.56-1.7-1.44l-13.74 1.86-2.62-9.45 4.18-6.07c0.49-0.71 0.29-1.67-0.44-2.13l-29.53-18.38c0-0.1-0.01-0.2-0.03-0.3l-0.01-0.01-0.01-0.05-4.25-17.56 5.39-3.59-0.3 0.81c-0.48 1.34 0.99 2.53 2.2 1.79l16.84-10.37c1.24-0.77 0.78-2.67-0.67-2.78l-7.35-0.57 4.21-6.26c0.69-1.02-0.07-2.38-1.3-2.34zm-7.26 76.57c7.04 1.28 9.08 7.49 10.4 12.71l-11.32 3.25c-1.58-5.1-3.98-10.42 0.92-15.96z"/>
        <path opacity="0.6" d="m312.7 137.57c-0.02 0.01-0.05 0.01-0.07 0.01l-12.55 1.12c-0.62 0.06-1.14 0.49-1.31 1.08l-7.57 26.49-29.79 18.54c-0.72 0.45-0.93 1.42-0.44 2.13l4.19 6.06-2.63 9.46-13.74-1.87c-0.88-0.12-1.67 0.56-1.7 1.45l-1.79 64.19c3.61-0.29 7.15-0.44 10.62-0.44 12.49 0.03 24.01 1.95 34.51 5.28l15.49-66.96 6.61-2.94c0.83-0.37 1.14-1.38 0.67-2.15l-19.24-31.44 4.4-14.99 6.46-0.41-0.65 0.55c-1.1 0.92-0.42 2.69 1 2.65l19.78-0.56c1.45-0.04 2-1.92 0.8-2.74l-6.08-4.17 6.78-3.32c1.44-0.7 0.92-2.87-0.68-2.84l-12.54 0.16 0.92-2.27c0.41-1.01-0.36-2.11-1.45-2.07zm-27.37 64.2c4.9 5.55 2.51 10.86 0.93 15.96l-11.32-3.25c1.31-5.21 3.36-11.43 10.39-12.71z"/>
    </g>
</svg>
